# Blender 4.4.1
# www.blender.org
mtllib Crystal.mtl
o Cylinder.004
v -0.019652 -1.142994 -0.330399
v -0.025231 1.051739 -0.277374
v 0.283069 -1.145747 -0.154638
v 0.236477 1.005600 -0.125425
v 0.282261 -1.142339 0.195401
v 0.234736 0.937730 0.177878
v -0.077569 -1.139667 0.397092
v -0.026627 1.057630 0.327857
v -0.237393 -1.134795 0.270691
v -0.290490 0.950465 0.177327
v -0.323179 -1.136834 -0.156122
v -0.289792 0.947520 -0.125288
v 0.079018 1.206375 -0.143633
v -0.154124 1.229886 -0.144204
v -0.052075 -0.771399 -0.353349
v 0.290721 -0.781360 -0.154319
v 0.302154 -0.592899 0.212227
v -0.085008 -0.558910 0.473903
v -0.396122 -0.781557 -0.155778
v 0.075586 1.157087 0.177068
v 0.017717 1.275342 0.047860
v -0.081543 1.285345 0.047597
v -0.041014 -0.020193 -0.322044
v -0.481754 -1.047460 -0.012019
v -0.473465 -1.050627 0.165719
v -0.353135 -0.065626 0.214529
v -0.352310 -0.069108 -0.143215
v -0.541087 -0.327303 0.006465
v -0.527327 -0.457979 0.250145
v 0.551797 -1.139838 -0.776826
v 0.711396 1.420128 -0.909872
v 0.589985 -1.124166 -0.416269
v 0.740774 1.382279 -0.595185
v 0.297674 -1.088089 -0.204237
v 0.480972 1.330346 -0.407515
v -0.090415 -1.069786 -0.382986
v 0.205978 1.482508 -0.543260
v -0.082248 -1.077125 -0.594022
v 0.161362 1.340404 -0.848454
v 0.221299 -1.119432 -0.925350
v 0.414071 1.309214 -1.031760
v 0.676376 1.614978 -0.751756
v 0.536261 1.640388 -0.948898
v 0.606931 -0.728459 -0.854488
v 0.649605 -0.718752 -0.445733
v 0.366375 -0.463692 -0.226005
v -0.085879 -0.403362 -0.393278
v 0.230865 -0.725460 -1.021656
v 0.402564 1.586448 -0.556182
v 0.484828 1.712969 -0.691281
v 0.425190 1.723778 -0.775226
v 0.649975 0.156844 -0.877308
v 0.011518 -1.002714 -0.976534
v -0.131996 -0.990066 -0.861255
v 0.007607 0.149779 -0.809120
v 0.306353 0.112907 -1.025819
v 0.044579 -0.178381 -1.075243
v -0.161209 -0.309406 -0.906591
v 1.086619 -1.113522 -0.405122
v 1.082957 0.129288 -0.475960
v 1.210764 -1.081987 -0.138760
v 1.191836 0.133239 -0.243327
v 1.040758 -1.064362 0.102377
v 1.046324 0.110694 -0.031067
v 0.694583 -1.083543 0.069329
v 0.789008 0.159761 -0.059025
v 0.645175 -1.099896 -0.094689
v 0.683396 0.074026 -0.283447
v 0.792467 -1.127433 -0.430347
v 0.830370 0.058789 -0.491915
v 1.084769 0.226354 -0.342062
v 0.923194 0.219576 -0.455278
v 1.165893 -0.847633 -0.443012
v 1.306717 -0.815569 -0.141019
v 1.130609 -0.697599 0.107400
v 0.735429 -0.699636 0.101008
v 0.833068 -0.872532 -0.470661
v 0.929013 0.214358 -0.119600
v 0.947351 0.266712 -0.242882
v 0.878570 0.263822 -0.291097
v 1.131720 -0.445103 -0.456588
v 0.610067 -1.086396 -0.411534
v 0.529925 -1.079337 -0.284666
v 0.658207 -0.470778 -0.232973
v 0.831957 -0.488790 -0.479418
v 0.638339 -0.635161 -0.452475
v 0.534604 -0.692588 -0.270583
v 0.463155 -1.134877 -0.233998
v 0.399281 -0.117632 -0.242734
v 0.604492 -1.117539 -0.155707
v 0.517723 -0.103102 -0.177126
v 0.606879 -1.107849 0.006491
v 0.516334 -0.122515 -0.036243
v 0.467928 -1.115497 0.090398
v 0.409737 -0.128181 0.027957
v 0.326590 -1.132836 0.012107
v 0.284839 -0.115921 -0.036497
v 0.324204 -1.142526 -0.150091
v 0.282840 -0.124042 -0.172419
v 0.405823 -0.025250 -0.036541
v -0.621523 -1.106223 0.800044
v 1.363074 -1.106223 0.800045
v -0.621523 -1.106223 -1.184553
v 1.363074 -1.106223 -1.184553
vn 0.5030 0.0287 -0.8638
vn 0.5043 0.0290 -0.8630
vn 0.5040 0.0289 -0.8632
vn 0.9991 0.0366 -0.0210
vn -0.5697 0.0831 0.8176
vn 0.8026 0.5855 0.1137
vn -0.9981 0.0614 -0.0029
vn -0.5063 0.0448 -0.8612
vn -0.5067 0.0448 -0.8610
vn -0.5009 0.0447 -0.8644
vn -0.0145 -0.9999 0.0056
vn 0.5166 0.3337 -0.7885
vn 0.0961 0.9459 -0.3099
vn -0.5480 0.2090 -0.8100
vn 0.0652 0.6273 -0.7761
vn -0.4951 -0.0986 -0.8632
vn -0.7089 -0.1449 -0.6903
vn -0.6186 -0.1108 0.7779
vn 0.5229 -0.0761 0.8490
vn 0.9995 -0.0300 -0.0068
vn 0.5019 -0.0097 -0.8648
vn 0.1203 0.7744 0.6212
vn -0.8643 0.4986 0.0668
vn -0.5684 0.5805 0.5830
vn 0.5896 0.4303 0.6835
vn -0.5006 0.0447 -0.8645
vn -0.7363 0.0067 -0.6766
vn -0.7353 -0.0441 0.6763
vn 0.5025 0.0286 -0.8641
vn -0.3968 -0.9159 0.0600
vn -0.9958 -0.0878 0.0242
vn -0.8505 0.5105 0.1263
vn -0.4495 -0.1659 0.8778
vn 0.0690 0.0598 0.9958
vn 0.5436 0.0496 0.8379
vn 0.9935 -0.0508 -0.1020
vn 0.9937 -0.0505 -0.1004
vn 0.9936 -0.0506 -0.1008
vn 0.6081 0.0353 0.7930
vn -0.9894 0.1442 0.0152
vn 0.4335 0.5498 0.7140
vn -0.5825 0.0484 -0.8114
vn 0.3973 -0.0417 -0.9167
vn 0.3969 -0.0416 -0.9169
vn 0.4030 -0.0420 -0.9142
vn -0.0810 -0.9955 0.0497
vn 0.9720 0.2262 -0.0635
vn 0.4050 0.8980 -0.1721
vn 0.3427 0.1071 -0.9333
vn 0.7339 0.5026 -0.4568
vn 0.3913 -0.2242 -0.8925
vn 0.1029 -0.2386 -0.9657
vn -0.9992 0.0062 -0.0389
vn -0.3768 0.0444 0.9252
vn 0.5890 -0.0332 0.8075
vn 0.9836 -0.1511 -0.0984
vn -0.4128 0.7903 0.4528
vn -0.5490 0.4504 -0.7041
vn -0.8002 0.5799 -0.1530
vn -0.1813 0.4516 0.8736
vn 0.4033 -0.0420 -0.9141
vn 0.0884 -0.0673 -0.9938
vn -0.9855 0.0435 -0.1637
vn 0.9934 -0.0509 -0.1025
vn -0.3736 -0.8891 -0.2645
vn -0.6139 -0.0737 -0.7859
vn -0.5900 0.4674 -0.6583
vn -0.9844 -0.0307 0.1732
vn -0.7858 0.1622 0.5969
vn -0.3510 0.1224 0.9283
vn 0.9022 0.0623 -0.4268
vn 0.9028 0.0630 -0.4254
vn 0.9028 0.0629 -0.4255
vn 0.8243 0.1675 0.5408
vn -0.9373 0.1025 0.3332
vn 0.4416 0.8182 0.3682
vn -0.8177 -0.0155 -0.5754
vn 0.0755 -0.0249 -0.9968
vn 0.0752 -0.0249 -0.9969
vn 0.0820 -0.0246 -0.9963
vn 0.0401 -0.9944 0.0977
vn 0.7805 0.5011 -0.3738
vn 0.1192 0.9663 -0.2280
vn -0.0005 0.2224 -0.9749
vn 0.3550 0.7546 -0.5518
vn 0.0932 -0.1688 -0.9812
vn -0.1315 -0.1344 -0.9822
vn -0.9567 0.0787 0.2803
vn -0.9569 0.0791 0.2795
vn -0.9575 0.0805 0.2769
vn -0.0519 -0.0397 0.9979
vn 0.7645 -0.2270 0.6034
vn 0.8731 -0.3154 -0.3717
vn -0.2321 0.9143 0.3320
vn -0.6751 0.5911 -0.4414
vn -0.6951 0.7169 0.0532
vn 0.0505 0.6810 0.7305
vn 0.0822 -0.0246 -0.9963
vn -0.1574 -0.0536 -0.9861
vn -0.9576 0.0807 0.2767
vn 0.9020 0.0622 -0.4272
vn -0.1912 -0.9813 -0.0206
vn -0.8603 0.0175 -0.5095
vn -0.6913 0.6070 -0.3920
vn -0.8554 -0.0085 0.5180
vn -0.5770 0.1867 0.7951
vn -0.0391 0.1754 0.9837
vn 0.4823 0.0228 -0.8757
vn 0.9961 0.0883 -0.0004
vn 0.5113 0.0842 0.8553
vn -0.4728 0.0252 0.8808
vn -0.3630 0.4848 0.7957
vn -0.9990 -0.0402 0.0171
vn -0.5149 -0.0397 -0.8563
vn 0.0898 -0.9943 0.0581
vn 0.4301 0.4910 0.7575
vn -0.4282 0.8699 -0.2448
vn 0.1156 0.9051 -0.4092
vn 0.6566 0.7463 0.1093
vn -0.0000 1.0000 -0.0000
vt 0.423044 0.703192
vt 0.322842 0.911620
vt 0.263168 0.882165
vt 0.413413 0.519236
vt 0.209811 0.833668
vt 0.324902 0.529139
vt 0.225960 0.501595
vt 0.137465 0.848701
vt 0.081665 0.806693
vt 0.123013 0.582147
vt 0.227614 0.935825
vt 0.179450 0.920013
vt 0.175574 0.880207
vt 0.015272 0.806465
vt 0.036226 0.572876
vt 0.500328 0.727992
vt 0.390207 0.928098
vt 0.608143 0.949702
vt 0.523421 0.952010
vt 0.479061 0.879792
vt 0.527520 0.792461
vt 0.576539 0.798162
vt 0.648506 0.875176
vt 0.281745 0.939121
vt 0.159893 0.933185
vt 0.183520 0.984046
vt 0.328921 0.966654
vt 0.591541 0.540738
vt 0.573298 0.585513
vt 0.491756 0.553770
vt 0.512023 0.506092
vt 0.030027 0.420896
vt 0.030800 0.371333
vt 0.084938 0.394728
vt 0.248919 0.409952
vt 0.201505 0.396960
vt 0.349158 0.440902
vt 0.431759 0.472911
vt 0.064236 0.895690
vt 0.016737 0.880239
vt 0.077063 0.511251
vt 0.641368 0.786968
vt 0.666539 0.821937
vt 0.130303 0.400553
vt 0.122122 0.490205
vt 0.907544 0.229783
vt 0.905573 0.461038
vt 0.839038 0.459779
vt 0.820541 0.067416
vt 0.770115 0.438601
vt 0.744660 0.114047
vt 0.643404 0.131230
vt 0.711045 0.482995
vt 0.642672 0.468728
vt 0.584526 0.247935
vt 0.829700 0.523468
vt 0.779387 0.529658
vt 0.758938 0.495287
vt 0.582495 0.496778
vt 0.502045 0.276481
vt 0.988035 0.219334
vt 0.973546 0.447280
vt 0.461828 0.393262
vt 0.388429 0.435639
vt 0.315030 0.393262
vt 0.316051 0.293393
vt 0.361870 0.275062
vt 0.461828 0.308508
vt 0.880087 0.503414
vt 0.767295 0.549900
vt 0.810321 0.585870
vt 0.934496 0.508252
vt 0.990883 0.011066
vt 0.993430 0.059348
vt 0.906132 0.065325
vt 0.904181 0.013555
vt 0.431755 0.141589
vt 0.411362 0.096410
vt 0.470309 0.094540
vt 0.625177 0.038529
vt 0.576742 0.046951
vt 0.729057 0.023876
vt 0.817428 0.017688
vt 0.664775 0.556681
vt 0.615217 0.562913
vt 0.512773 0.203335
vt 0.413544 0.234345
vt 0.452331 0.253106
vt 0.513839 0.080505
vt 0.544590 0.165114
vt 0.989590 0.595013
vt 0.957383 0.953942
vt 0.923281 0.938573
vt 0.943026 0.591567
vt 0.890106 0.931194
vt 0.893573 0.589847
vt 0.858125 0.940988
vt 0.844019 0.590448
vt 0.820580 0.940688
vt 0.797192 0.593011
vt 0.828054 0.989220
vt 0.789422 0.943445
vt 0.745725 0.598173
vt 0.758386 0.963019
vt 0.693122 0.606251
vt 0.622133 0.733756
vt 0.581664 0.710391
vt 0.581664 0.663661
vt 0.622133 0.640296
vt 0.662603 0.663661
vt 0.662603 0.710391
vt 0.890688 0.985905
vt 0.003328 0.005862
vt 0.308661 0.005862
vt 0.308661 0.311195
vt 0.003328 0.311195
s 1
usemtl Material.001
f 23/1/1 2/2/2 4/3/2 16/4/3
f 16/4/4 4/3/4 6/5/4 17/6/4
f 18/7/5 8/8/5 10/9/5 26/10/5
f 6/5/6 4/3/6 13/11/6 21/12/6 20/13/6
f 26/10/7 10/9/7 12/14/7 27/15/7
f 27/16/8 12/17/9 2/2/9 23/1/10
f 1/18/11 3/19/11 5/20/11 7/21/11 9/22/11 11/23/11
f 4/3/12 2/2/12 13/24/12
f 22/25/13 21/12/13 13/11/13 14/26/13
f 2/2/14 12/17/14 14/27/14
f 13/24/15 2/2/15 14/27/15
f 11/28/16 19/29/16 15/30/16 1/31/16
f 19/32/17 11/33/17 24/34/17
f 7/35/18 18/7/18 9/36/18
f 5/37/19 17/6/19 18/7/19 7/35/19
f 3/38/20 16/4/20 17/6/20 5/37/20
f 1/31/21 15/30/21 16/4/21 3/38/21
f 20/13/22 21/12/22 22/25/22 8/8/22
f 12/14/23 10/9/23 22/39/23 14/40/23
f 8/8/24 22/39/24 10/9/24
f 6/5/25 20/13/25 8/8/25
f 19/29/26 27/16/8 23/1/10 15/30/26
f 27/15/27 19/32/27 24/34/27 28/41/27
f 18/7/28 26/10/28 9/36/28
f 15/30/29 23/1/1 16/4/3
f 11/23/30 9/22/30 25/42/30 24/43/30
f 25/44/31 29/45/31 28/41/31 24/34/31
f 26/10/32 27/15/32 28/41/32 29/45/32
f 25/44/33 9/36/33 29/45/33
f 9/36/34 26/10/34 29/45/34
f 17/6/35 6/5/35 8/8/35 18/7/35
f 52/46/36 31/47/37 33/48/37 45/49/38
f 45/49/39 33/48/39 35/50/39 46/51/39
f 47/52/40 37/53/40 39/54/40 55/55/40
f 35/50/41 33/48/41 42/56/41 50/57/41 49/58/41
f 55/55/42 39/54/42 41/59/42 56/60/42
f 56/61/43 41/62/44 31/47/44 52/46/45
f 30/63/46 32/64/46 34/65/46 36/66/46 38/67/46 40/68/46
f 33/48/47 31/47/47 42/69/47
f 51/70/48 50/57/48 42/56/48 43/71/48
f 31/47/49 41/62/49 43/72/49
f 42/69/50 31/47/50 43/72/50
f 40/73/51 48/74/51 44/75/51 30/76/51
f 48/77/52 40/78/52 53/79/52
f 36/80/53 47/52/53 38/81/53
f 34/82/54 46/51/54 47/52/54 36/80/54
f 32/83/55 45/49/55 46/51/55 34/82/55
f 30/76/56 44/75/56 45/49/56 32/83/56
f 49/58/57 50/57/57 51/70/57 37/53/57
f 41/59/58 39/54/58 51/84/58 43/85/58
f 37/53/59 51/84/59 39/54/59
f 35/50/60 49/58/60 37/53/60
f 48/74/61 56/61/43 52/46/45 44/75/61
f 56/60/62 48/77/62 53/79/62 57/86/62
f 47/52/63 55/55/63 38/81/63
f 44/75/64 52/46/36 45/49/38
f 40/68/65 38/67/65 54/87/65 53/88/65
f 54/89/66 58/90/66 57/86/66 53/79/66
f 55/55/67 56/60/67 57/86/67 58/90/67
f 54/89/68 38/81/68 58/90/68
f 38/81/69 55/55/69 58/90/69
f 46/51/70 35/50/70 37/53/70 47/52/70
f 81/1/71 60/2/72 62/3/72 74/4/73
f 74/4/74 62/3/74 64/5/74 75/6/74
f 76/7/75 66/8/75 68/9/75 84/10/75
f 64/5/76 62/3/76 71/11/76 79/12/76 78/13/76
f 84/10/77 68/9/77 70/14/77 85/15/77
f 85/16/78 70/17/79 60/2/79 81/1/80
f 59/18/81 61/19/81 63/20/81 65/21/81 67/22/81 69/23/81
f 62/3/82 60/2/82 71/24/82
f 80/25/83 79/12/83 71/11/83 72/26/83
f 60/2/84 70/17/84 72/27/84
f 71/24/85 60/2/85 72/27/85
f 69/28/86 77/29/86 73/30/86 59/31/86
f 77/32/87 69/33/87 82/34/87
f 65/35/88 76/7/89 67/36/90
f 63/37/91 75/6/91 76/7/91 65/35/91
f 61/38/92 74/4/92 75/6/92 63/37/92
f 59/31/93 73/30/93 74/4/93 61/38/93
f 78/13/94 79/12/94 80/25/94 66/8/94
f 70/14/95 68/9/95 80/39/95 72/40/95
f 66/8/96 80/39/96 68/9/96
f 64/5/97 78/13/97 66/8/97
f 77/29/98 85/16/78 81/1/80 73/30/98
f 85/15/99 77/32/99 82/34/99 86/41/99
f 76/7/89 84/10/100 67/36/90
f 73/30/101 81/1/71 74/4/73
f 69/23/102 67/22/102 83/42/102 82/43/102
f 83/44/103 87/45/103 86/41/103 82/34/103
f 84/10/104 85/15/104 86/41/104 87/45/104
f 83/44/105 67/36/105 87/45/105
f 67/36/106 84/10/106 87/45/106
f 75/6/107 64/5/107 66/8/107 76/7/107
f 88/91/108 89/92/108 91/93/108 90/94/108
f 90/94/109 91/93/109 93/95/109 92/96/109
f 92/96/110 93/95/110 95/97/110 94/98/110
f 94/98/111 95/97/111 97/99/111 96/100/111
f 100/101/112 97/99/112 95/97/112
f 96/100/113 97/99/113 99/102/113 98/103/113
f 98/103/114 99/102/114 89/104/114 88/105/114
f 88/106/115 90/107/115 92/108/115 94/109/115 96/110/115 98/111/115
f 93/95/116 100/112/116 95/97/116
f 99/102/117 97/99/117 100/101/117 89/104/117
f 91/93/118 89/92/118 100/112/118
f 93/95/119 91/93/119 100/112/119
f 101/113/120 102/114/120 104/115/120 103/116/120
